<svg width="512" height="512" viewBox="0 0 512 512" fill="none" xmlns="http://www.w3.org/2000/svg" xmlns:xlink="http://www.w3.org/1999/xlink"><rect id="_r_n_" width="512" height="512" x="0" y="0" rx="128" fill="url(#_r_o_)" stroke="#FFFFFF" stroke-width="0" stroke-opacity="100%" paint-order="stroke"></rect><clipPath id="clip"><use xlink:href="#_r_n_"></use></clipPath><defs><radialGradient id="_r_o_" cx="50%" cy="50%" r="100%" fx="50%" fy="0%" gradientUnits="objectBoundingBox"><stop stop-color="#4d4d4d"></stop><stop offset="1" stop-color="#000000"></stop></radialGradient><radialGradient id="_r_p_" cx="0" cy="0" r="1" gradientUnits="userSpaceOnUse" gradientTransform="translate(256) rotate(90) scale(512)"><stop stop-color="white"></stop><stop offset="1" stop-color="white" stop-opacity="0"></stop></radialGradient></defs><svg xmlns="http://www.w3.org/2000/svg" fill="none" viewBox="0 0 16 16" width="352" height="352" x="80" y="80" alignment-baseline="middle" style="color: rgb(230, 230, 230); width: 352px; height: 352px;"><path stroke="currentColor" stroke-linecap="round" stroke-linejoin="round" stroke-width="1.5" d="M8 6.75v4.5M10.25 9h-4.5m0-5.5v-.75a1 1 0 0 1 1-1h2.5a1 1 0 0 1 1 1v.75m-6.5.25h8.5a2 2 0 0 1 2 2v6.5a2 2 0 0 1-2 2h-8.5a2 2 0 0 1-2-2v-6.5a2 2 0 0 1 2-2Z"></path></svg></svg>
